<svg data-v-423bf9ae="" xmlns="http://www.w3.org/2000/svg" viewBox="0 0 540.2967942388634 163" class="iconAbove"><!----><!----><!----><g data-v-423bf9ae="" id="8ba68a7f-31cc-43a6-a9a7-9cf074734fed" fill="black" transform="matrix(4.240282799826114,0,0,4.240282799826114,-4.282681684860165,89.60070527334736)"><path d="M9.06 11.88L9.06 12.68L9.06 12.68Q8.67 13.02 8.22 13.23L8.22 13.23L8.22 13.23Q7.77 13.45 7.31 13.57L7.31 13.57L7.31 13.57Q6.86 13.69 6.44 13.74L6.44 13.74L6.44 13.74Q6.02 13.78 5.69 13.78L5.69 13.78L5.69 13.78Q4.70 13.78 3.85 13.43L3.85 13.43L3.85 13.43Q2.99 13.08 2.36 12.43L2.36 12.43L2.36 12.43Q1.73 11.79 1.37 10.89L1.37 10.89L1.37 10.89Q1.01 9.98 1.01 8.87L1.01 8.87L1.01 8.87Q1.01 8.03 1.22 7.31L1.22 7.31L1.22 7.31Q1.42 6.58 1.79 5.99L1.79 5.99L1.79 5.99Q2.16 5.39 2.67 4.93L2.67 4.93L2.67 4.93Q3.17 4.46 3.78 4.15L3.78 4.15L3.78 4.15Q4.39 3.83 5.07 3.66L5.07 3.66L5.07 3.66Q5.76 3.49 6.47 3.49L6.47 3.49L6.47 3.49Q6.95 3.49 7.61 3.58L7.61 3.58L7.61 3.58Q8.27 3.66 9.03 3.89L9.03 3.89L8.80 5.08L8.66 5.15L8.66 5.15Q7.91 4.81 7.26 4.68L7.26 4.68L7.26 4.68Q6.62 4.55 6.17 4.55L6.17 4.55L6.17 4.55Q5.35 4.55 4.66 4.87L4.66 4.87L4.66 4.87Q3.96 5.19 3.47 5.74L3.47 5.74L3.47 5.74Q2.97 6.29 2.69 7.02L2.69 7.02L2.69 7.02Q2.41 7.75 2.41 8.58L2.41 8.58L2.41 8.58Q2.41 9.37 2.66 10.11L2.66 10.11L2.66 10.11Q2.91 10.86 3.39 11.43L3.39 11.43L3.39 11.43Q3.88 12.00 4.59 12.34L4.59 12.34L4.59 12.34Q5.30 12.69 6.22 12.69L6.22 12.69L6.22 12.69Q6.49 12.69 6.81 12.65L6.81 12.65L6.81 12.65Q7.13 12.62 7.49 12.53L7.49 12.53L7.49 12.53Q7.85 12.43 8.25 12.28L8.25 12.28L8.25 12.28Q8.65 12.13 9.06 11.88L9.06 11.88ZM13.79 13.78L13.79 13.78L13.79 13.78Q12.99 13.78 12.36 13.49L12.36 13.49L12.36 13.49Q11.73 13.21 11.30 12.72L11.30 12.72L11.30 12.72Q10.86 12.24 10.63 11.59L10.63 11.59L10.63 11.59Q10.40 10.94 10.40 10.23L10.40 10.23L10.40 10.23Q10.40 9.41 10.69 8.69L10.69 8.69L10.69 8.69Q10.99 7.96 11.50 7.42L11.50 7.42L11.50 7.42Q12.02 6.88 12.73 6.57L12.73 6.57L12.73 6.57Q13.44 6.26 14.27 6.26L14.27 6.26L14.27 6.26Q15.09 6.26 15.72 6.55L15.72 6.55L15.72 6.55Q16.36 6.84 16.79 7.33L16.79 7.33L16.79 7.33Q17.23 7.83 17.45 8.47L17.45 8.47L17.45 8.47Q17.68 9.12 17.68 9.83L17.68 9.83L17.68 9.83Q17.68 10.66 17.38 11.38L17.38 11.38L17.38 11.38Q17.09 12.10 16.57 12.63L16.57 12.63L16.57 12.63Q16.05 13.17 15.34 13.47L15.34 13.47L15.34 13.47Q14.63 13.78 13.79 13.78ZM14.08 12.74L14.08 12.74L14.08 12.74Q14.58 12.74 14.99 12.54L14.99 12.54L14.99 12.54Q15.39 12.34 15.69 11.99L15.69 11.99L15.69 11.99Q15.98 11.64 16.14 11.17L16.14 11.17L16.14 11.17Q16.30 10.69 16.30 10.14L16.30 10.14L16.30 10.14Q16.30 9.60 16.14 9.10L16.14 9.10L16.14 9.10Q15.98 8.59 15.69 8.19L15.69 8.19L15.69 8.19Q15.39 7.79 14.96 7.54L14.96 7.54L14.96 7.54Q14.53 7.30 13.99 7.30L13.99 7.30L13.99 7.30Q13.49 7.30 13.08 7.50L13.08 7.50L13.08 7.50Q12.67 7.70 12.38 8.06L12.38 8.06L12.38 8.06Q12.09 8.41 11.93 8.89L11.93 8.89L11.93 8.89Q11.77 9.37 11.77 9.91L11.77 9.91L11.77 9.91Q11.77 10.45 11.93 10.96L11.93 10.96L11.93 10.96Q12.09 11.47 12.38 11.87L12.38 11.87L12.38 11.87Q12.68 12.26 13.11 12.50L13.11 12.50L13.11 12.50Q13.54 12.74 14.08 12.74ZM19.63 13.64L19.63 6.40L20.64 6.40L20.85 7.66L20.85 7.66Q21.08 7.44 21.39 7.19L21.39 7.19L21.39 7.19Q21.69 6.95 22.04 6.74L22.04 6.74L22.04 6.74Q22.38 6.54 22.75 6.40L22.75 6.40L22.75 6.40Q23.13 6.26 23.50 6.26L23.50 6.26L23.50 6.26Q23.81 6.26 24.11 6.36L24.11 6.36L24.11 6.36Q24.41 6.47 24.67 6.65L24.67 6.65L24.67 6.65Q24.92 6.84 25.13 7.10L25.13 7.10L25.13 7.10Q25.33 7.36 25.44 7.68L25.44 7.68L25.44 7.68Q25.70 7.46 26.00 7.21L26.00 7.21L26.00 7.21Q26.30 6.96 26.64 6.75L26.64 6.75L26.64 6.75Q26.97 6.54 27.36 6.40L27.36 6.40L27.36 6.40Q27.74 6.26 28.16 6.26L28.16 6.26L28.16 6.26Q28.66 6.26 29.06 6.46L29.06 6.46L29.06 6.46Q29.46 6.65 29.74 7L29.74 7L29.74 7Q30.02 7.35 30.17 7.82L30.17 7.82L30.17 7.82Q30.32 8.30 30.32 8.86L30.32 8.86L30.32 13.64L29.03 13.64L29.03 8.97L29.03 8.97Q29.03 8.60 28.93 8.30L28.93 8.30L28.93 8.30Q28.83 8.00 28.64 7.79L28.64 7.79L28.64 7.79Q28.46 7.58 28.19 7.47L28.19 7.47L28.19 7.47Q27.93 7.36 27.60 7.36L27.60 7.36L27.60 7.36Q27.32 7.36 27.07 7.44L27.07 7.44L27.07 7.44Q26.82 7.52 26.58 7.67L26.58 7.67L26.58 7.67Q26.34 7.81 26.10 8.02L26.10 8.02L26.10 8.02Q25.85 8.22 25.60 8.46L25.60 8.46L25.60 8.46Q25.61 8.56 25.62 8.65L25.62 8.65L25.62 8.65Q25.62 8.74 25.62 8.86L25.62 8.86L25.62 13.64L24.32 13.64L24.32 8.97L24.32 8.97Q24.32 8.60 24.22 8.30L24.22 8.30L24.22 8.30Q24.12 8.00 23.93 7.79L23.93 7.79L23.93 7.79Q23.74 7.58 23.47 7.47L23.47 7.47L23.47 7.47Q23.21 7.36 22.89 7.36L22.89 7.36L22.89 7.36Q22.61 7.36 22.37 7.44L22.37 7.44L22.37 7.44Q22.12 7.52 21.89 7.67L21.89 7.67L21.89 7.67Q21.65 7.81 21.41 8.02L21.41 8.02L21.41 8.02Q21.18 8.22 20.93 8.45L20.93 8.45L20.93 13.64L19.63 13.64ZM34.08 8.45L34.08 12.41L34.08 12.41Q34.28 12.51 34.49 12.57L34.49 12.57L34.49 12.57Q34.71 12.63 34.92 12.67L34.92 12.67L34.92 12.67Q35.14 12.71 35.33 12.73L35.33 12.73L35.33 12.73Q35.53 12.74 35.68 12.74L35.68 12.74L35.68 12.74Q36.24 12.74 36.71 12.53L36.71 12.53L36.71 12.53Q37.17 12.32 37.51 11.94L37.51 11.94L37.51 11.94Q37.84 11.57 38.03 11.06L38.03 11.06L38.03 11.06Q38.21 10.55 38.21 9.95L38.21 9.95L38.21 9.95Q38.21 9.43 38.07 8.96L38.07 8.96L38.07 8.96Q37.92 8.48 37.65 8.13L37.65 8.13L37.65 8.13Q37.38 7.77 37.00 7.56L37.00 7.56L37.00 7.56Q36.62 7.36 36.16 7.36L36.16 7.36L36.16 7.36Q35.59 7.36 35.07 7.66L35.07 7.66L35.07 7.66Q34.55 7.96 34.08 8.45L34.08 8.45ZM33.77 6.40L34.00 7.66L34.00 7.66Q34.24 7.42 34.53 7.18L34.53 7.18L34.53 7.18Q34.82 6.93 35.16 6.73L35.16 6.73L35.16 6.73Q35.51 6.52 35.90 6.39L35.90 6.39L35.90 6.39Q36.30 6.26 36.75 6.26L36.75 6.26L36.75 6.26Q37.41 6.26 37.94 6.55L37.94 6.55L37.94 6.55Q38.46 6.84 38.82 7.32L38.82 7.32L38.82 7.32Q39.19 7.81 39.39 8.43L39.39 8.43L39.39 8.43Q39.58 9.06 39.58 9.73L39.58 9.73L39.58 9.73Q39.58 10.61 39.26 11.35L39.26 11.35L39.26 11.35Q38.93 12.10 38.38 12.64L38.38 12.64L38.38 12.64Q37.82 13.18 37.08 13.48L37.08 13.48L37.08 13.48Q36.34 13.78 35.51 13.78L35.51 13.78L35.51 13.78Q35.16 13.78 34.77 13.73L34.77 13.73L34.77 13.73Q34.38 13.69 34.08 13.60L34.08 13.60L34.08 17.31L32.79 17.31L32.79 6.40L33.77 6.40ZM45.45 12.56L45.45 12.56L45.45 12.56Q45.27 12.71 45.03 12.92L45.03 12.92L45.03 12.92Q44.79 13.13 44.48 13.32L44.48 13.32L44.48 13.32Q44.18 13.51 43.82 13.64L43.82 13.64L43.82 13.64Q43.46 13.78 43.06 13.78L43.06 13.78L43.06 13.78Q42.70 13.78 42.35 13.65L42.35 13.65L42.35 13.65Q42.01 13.53 41.74 13.28L41.74 13.28L41.74 13.28Q41.47 13.03 41.31 12.66L41.31 12.66L41.31 12.66Q41.15 12.29 41.15 11.81L41.15 11.81L41.15 11.81Q41.15 11.52 41.22 11.22L41.22 11.22L41.22 11.22Q41.30 10.92 41.47 10.64L41.47 10.64L41.47 10.64Q41.64 10.36 41.91 10.12L41.91 10.12L41.91 10.12Q42.19 9.88 42.60 9.70L42.60 9.70L42.60 9.70Q43.00 9.52 43.56 9.41L43.56 9.41L43.56 9.41Q44.11 9.31 44.83 9.31L44.83 9.31L45.45 9.31L45.45 8.68L45.45 8.68Q45.45 8.37 45.34 8.11L45.34 8.11L45.34 8.11Q45.23 7.86 45.03 7.68L45.03 7.68L45.03 7.68Q44.84 7.50 44.57 7.40L44.57 7.40L44.57 7.40Q44.30 7.30 43.97 7.30L43.97 7.30L43.97 7.30Q43.72 7.30 43.45 7.36L43.45 7.36L43.45 7.36Q43.17 7.41 42.89 7.51L42.89 7.51L42.89 7.51Q42.62 7.62 42.36 7.75L42.36 7.75L42.36 7.75Q42.11 7.89 41.92 8.05L41.92 8.05L41.79 7.98L41.52 6.99L41.52 6.99Q41.92 6.77 42.29 6.63L42.29 6.63L42.29 6.63Q42.66 6.49 42.99 6.41L42.99 6.41L42.99 6.41Q43.33 6.32 43.64 6.29L43.64 6.29L43.64 6.29Q43.95 6.26 44.23 6.26L44.23 6.26L44.23 6.26Q45.51 6.26 46.13 6.79L46.13 6.79L46.13 6.79Q46.74 7.32 46.74 8.38L46.74 8.38L46.74 11.95L46.74 11.95Q46.74 12.04 46.76 12.16L46.76 12.16L46.76 12.16Q46.77 12.29 46.82 12.41L46.82 12.41L46.82 12.41Q46.87 12.52 46.97 12.61L46.97 12.61L46.97 12.61Q47.07 12.69 47.24 12.69L47.24 12.69L47.24 12.69Q47.34 12.69 47.50 12.66L47.50 12.66L47.50 12.66Q47.65 12.63 47.81 12.55L47.81 12.55L47.81 13.28L47.81 13.28Q47.48 13.50 47.15 13.64L47.15 13.64L47.15 13.64Q46.82 13.78 46.51 13.78L46.51 13.78L46.51 13.78Q46.23 13.78 46.05 13.67L46.05 13.67L46.05 13.67Q45.87 13.56 45.75 13.38L45.75 13.38L45.75 13.38Q45.63 13.20 45.56 12.98L45.56 12.98L45.56 12.98Q45.49 12.77 45.45 12.56ZM45.45 11.69L45.45 10.10L44.93 10.10L44.93 10.10Q44.13 10.10 43.65 10.22L43.65 10.22L43.65 10.22Q43.18 10.33 42.93 10.52L42.93 10.52L42.93 10.52Q42.68 10.71 42.60 10.95L42.60 10.95L42.60 10.95Q42.52 11.20 42.52 11.46L42.52 11.46L42.52 11.46Q42.52 11.75 42.60 11.98L42.60 11.98L42.60 11.98Q42.68 12.20 42.83 12.36L42.83 12.36L42.83 12.36Q42.98 12.52 43.18 12.61L43.18 12.61L43.18 12.61Q43.39 12.69 43.63 12.69L43.63 12.69L43.63 12.69Q43.81 12.69 44.01 12.64L44.01 12.64L44.01 12.64Q44.20 12.60 44.42 12.49L44.42 12.49L44.42 12.49Q44.65 12.37 44.90 12.18L44.90 12.18L44.90 12.18Q45.14 11.99 45.45 11.69L45.45 11.69ZM49.39 13.64L49.39 6.40L50.40 6.40L50.61 7.66L50.61 7.66Q50.85 7.43 51.15 7.18L51.15 7.18L51.15 7.18Q51.46 6.94 51.82 6.73L51.82 6.73L51.82 6.73Q52.18 6.53 52.58 6.40L52.58 6.40L52.58 6.40Q52.99 6.26 53.41 6.26L53.41 6.26L53.41 6.26Q53.91 6.26 54.31 6.45L54.31 6.45L54.31 6.45Q54.71 6.64 54.99 6.99L54.99 6.99L54.99 6.99Q55.28 7.33 55.43 7.81L55.43 7.81L55.43 7.81Q55.58 8.29 55.58 8.85L55.58 8.85L55.58 13.64L54.28 13.64L54.28 8.97L54.28 8.97Q54.28 8.57 54.17 8.27L54.17 8.27L54.17 8.27Q54.06 7.96 53.86 7.76L53.86 7.76L53.86 7.76Q53.66 7.56 53.39 7.46L53.39 7.46L53.39 7.46Q53.12 7.36 52.79 7.36L52.79 7.36L52.79 7.36Q52.23 7.36 51.72 7.66L51.72 7.66L51.72 7.66Q51.21 7.96 50.69 8.45L50.69 8.45L50.69 13.64L49.39 13.64ZM59.83 13.64L57.13 6.40L58.59 6.40L60.18 11.29L60.50 12.62L60.64 12.62L60.97 11.29L62.56 6.40L63.90 6.40L59.82 17.31L58.56 17.31L60.08 13.64L59.83 13.64ZM65.80 13.64L65.80 3.63L69.18 3.63L69.18 3.63Q70.51 3.63 71.51 4.00L71.51 4.00L71.51 4.00Q72.51 4.36 73.18 4.99L73.18 4.99L73.18 4.99Q73.85 5.62 74.19 6.47L74.19 6.47L74.19 6.47Q74.53 7.33 74.53 8.30L74.53 8.30L74.53 8.30Q74.53 8.93 74.38 9.57L74.38 9.57L74.38 9.57Q74.24 10.21 73.94 10.80L73.94 10.80L73.94 10.80Q73.64 11.40 73.19 11.92L73.19 11.92L73.19 11.92Q72.74 12.43 72.12 12.82L72.12 12.82L72.12 12.82Q71.50 13.20 70.71 13.42L70.71 13.42L70.71 13.42Q69.92 13.64 68.96 13.64L68.96 13.64L65.80 13.64ZM67.14 4.69L67.14 12.58L69.21 12.58L69.21 12.58Q70.20 12.58 70.94 12.27L70.94 12.27L70.94 12.27Q71.67 11.95 72.16 11.41L72.16 11.41L72.16 11.41Q72.64 10.86 72.88 10.13L72.88 10.13L72.88 10.13Q73.12 9.41 73.12 8.58L73.12 8.58L73.12 8.58Q73.12 7.68 72.84 6.96L72.84 6.96L72.84 6.96Q72.56 6.23 72.03 5.73L72.03 5.73L72.03 5.73Q71.50 5.23 70.73 4.96L70.73 4.96L70.73 4.96Q69.95 4.69 68.96 4.69L68.96 4.69L67.14 4.69ZM76.73 13.64L76.73 6.40L78.03 6.40L78.03 13.64L76.73 13.64ZM77.39 4.83L77.39 4.83L77.39 4.83Q77.22 4.83 77.07 4.76L77.07 4.76L77.07 4.76Q76.92 4.70 76.81 4.59L76.81 4.59L76.81 4.59Q76.70 4.48 76.64 4.34L76.64 4.34L76.64 4.34Q76.58 4.19 76.58 4.01L76.58 4.01L76.58 4.01Q76.58 3.83 76.64 3.68L76.64 3.68L76.64 3.68Q76.71 3.52 76.83 3.40L76.83 3.40L76.83 3.40Q76.94 3.29 77.09 3.22L77.09 3.22L77.09 3.22Q77.25 3.16 77.42 3.16L77.42 3.16L77.42 3.16Q77.58 3.16 77.73 3.22L77.73 3.22L77.73 3.22Q77.88 3.29 77.98 3.40L77.98 3.40L77.98 3.40Q78.09 3.52 78.16 3.67L78.16 3.67L78.16 3.67Q78.22 3.83 78.22 4.00L78.22 4.00L78.22 4.00Q78.22 4.18 78.15 4.34L78.15 4.34L78.15 4.34Q78.08 4.49 77.97 4.60L77.97 4.60L77.97 4.60Q77.85 4.70 77.70 4.76L77.70 4.76L77.70 4.76Q77.55 4.83 77.39 4.83ZM80.46 13.64L80.46 6.40L81.47 6.40L81.68 8.57L81.68 8.57Q81.76 8.40 81.86 8.22L81.86 8.22L81.86 8.22Q81.96 8.04 82.06 7.87L82.06 7.87L82.06 7.87Q82.16 7.70 82.26 7.55L82.26 7.55L82.26 7.55Q82.35 7.40 82.43 7.29L82.43 7.29L82.43 7.29Q82.58 7.08 82.77 6.89L82.77 6.89L82.77 6.89Q82.95 6.70 83.17 6.56L83.17 6.56L83.17 6.56Q83.39 6.42 83.64 6.34L83.64 6.34L83.64 6.34Q83.88 6.26 84.16 6.26L84.16 6.26L84.16 6.26Q84.36 6.26 84.54 6.31L84.54 6.31L84.54 6.31Q84.72 6.35 84.83 6.45L84.83 6.45L84.70 7.67L84.70 7.67Q84.57 7.64 84.45 7.63L84.45 7.63L84.45 7.63Q84.33 7.62 84.22 7.62L84.22 7.62L84.22 7.62Q83.73 7.62 83.37 7.77L83.37 7.77L83.37 7.77Q83.02 7.93 82.73 8.20L82.73 8.20L82.73 8.20Q82.45 8.47 82.22 8.83L82.22 8.83L82.22 8.83Q81.99 9.19 81.76 9.61L81.76 9.61L81.76 13.64L80.46 13.64ZM91.88 12.29L91.88 13.03L91.88 13.03Q91.62 13.21 91.28 13.35L91.28 13.35L91.28 13.35Q90.95 13.49 90.58 13.59L90.58 13.59L90.58 13.59Q90.22 13.69 89.85 13.73L89.85 13.73L89.85 13.73Q89.49 13.78 89.17 13.78L89.17 13.78L89.17 13.78Q88.48 13.78 87.85 13.55L87.85 13.55L87.85 13.55Q87.22 13.32 86.75 12.87L86.75 12.87L86.75 12.87Q86.28 12.41 86.00 11.75L86.00 11.75L86.00 11.75Q85.72 11.08 85.72 10.21L85.72 10.21L85.72 10.21Q85.72 9.32 86.01 8.59L86.01 8.59L86.01 8.59Q86.31 7.85 86.81 7.34L86.81 7.34L86.81 7.34Q87.31 6.82 87.96 6.54L87.96 6.54L87.96 6.54Q88.61 6.26 89.33 6.26L89.33 6.26L89.33 6.26Q89.91 6.26 90.42 6.46L90.42 6.46L90.42 6.46Q90.92 6.65 91.29 7.04L91.29 7.04L91.29 7.04Q91.66 7.43 91.88 8.02L91.88 8.02L91.88 8.02Q92.09 8.60 92.09 9.38L92.09 9.38L92.09 9.38Q92.09 9.54 92.07 9.75L92.07 9.75L92.07 9.75Q92.06 9.97 92.02 10.21L92.02 10.21L87.07 10.21L87.07 10.21Q87.07 10.80 87.28 11.26L87.28 11.26L87.28 11.26Q87.49 11.72 87.87 12.04L87.87 12.04L87.87 12.04Q88.25 12.36 88.77 12.52L88.77 12.52L88.77 12.52Q89.30 12.69 89.93 12.69L89.93 12.69L89.93 12.69Q90.09 12.69 90.32 12.67L90.32 12.67L90.32 12.67Q90.54 12.66 90.80 12.62L90.80 12.62L90.80 12.62Q91.06 12.58 91.34 12.50L91.34 12.50L91.34 12.50Q91.62 12.42 91.88 12.29L91.88 12.29ZM87.07 9.41L90.86 9.41L90.86 9.41Q90.86 8.89 90.71 8.50L90.71 8.50L90.71 8.50Q90.57 8.11 90.32 7.84L90.32 7.84L90.32 7.84Q90.08 7.57 89.75 7.44L89.75 7.44L89.75 7.44Q89.43 7.30 89.06 7.30L89.06 7.30L89.06 7.30Q88.65 7.30 88.29 7.47L88.29 7.47L88.29 7.47Q87.92 7.64 87.65 7.92L87.65 7.92L87.65 7.92Q87.38 8.21 87.23 8.59L87.23 8.59L87.23 8.59Q87.07 8.98 87.07 9.41L87.07 9.41ZM99.18 12.29L99.18 13.03L99.18 13.03Q98.76 13.36 98.17 13.57L98.17 13.57L98.17 13.57Q97.59 13.78 96.90 13.78L96.90 13.78L96.90 13.78Q96.16 13.78 95.56 13.52L95.56 13.52L95.56 13.52Q94.96 13.27 94.54 12.81L94.54 12.81L94.54 12.81Q94.12 12.35 93.89 11.71L93.89 11.71L93.89 11.71Q93.66 11.07 93.66 10.32L93.66 10.32L93.66 10.32Q93.66 9.43 93.96 8.69L93.96 8.69L93.96 8.69Q94.26 7.94 94.78 7.40L94.78 7.40L94.78 7.40Q95.31 6.86 96.02 6.56L96.02 6.56L96.02 6.56Q96.73 6.26 97.54 6.26L97.54 6.26L97.54 6.26Q97.73 6.26 97.96 6.28L97.96 6.28L97.96 6.28Q98.18 6.30 98.40 6.34L98.40 6.34L98.40 6.34Q98.62 6.38 98.82 6.44L98.82 6.44L98.82 6.44Q99.03 6.49 99.18 6.58L99.18 6.58L98.91 7.71L98.76 7.78L98.76 7.78Q98.62 7.68 98.45 7.59L98.45 7.59L98.45 7.59Q98.27 7.50 98.08 7.44L98.08 7.44L98.08 7.44Q97.88 7.38 97.68 7.34L97.68 7.34L97.68 7.34Q97.47 7.30 97.27 7.30L97.27 7.30L97.27 7.30Q96.81 7.30 96.40 7.48L96.40 7.48L96.40 7.48Q96.00 7.66 95.69 8.01L95.69 8.01L95.69 8.01Q95.38 8.35 95.20 8.86L95.20 8.86L95.20 8.86Q95.03 9.36 95.03 10.00L95.03 10.00L95.03 10.00Q95.03 10.66 95.21 11.16L95.21 11.16L95.21 11.16Q95.40 11.66 95.73 12.00L95.73 12.00L95.73 12.00Q96.06 12.34 96.51 12.51L96.51 12.51L96.51 12.51Q96.96 12.69 97.49 12.69L97.49 12.69L97.49 12.69Q97.80 12.69 98.25 12.61L98.25 12.61L98.25 12.61Q98.69 12.53 99.18 12.29L99.18 12.29ZM101.98 11.83L101.98 7.44L100.52 7.44L100.63 6.77L100.63 6.77Q101.16 6.66 101.48 6.49L101.48 6.49L101.48 6.49Q101.80 6.32 102.01 6.07L102.01 6.07L102.01 6.07Q102.22 5.82 102.36 5.46L102.36 5.46L102.36 5.46Q102.50 5.10 102.68 4.60L102.68 4.60L103.28 4.60L103.28 6.40L105.90 6.40L105.63 7.44L103.28 7.44L103.28 11.48L103.28 11.48Q103.28 11.81 103.38 12.04L103.38 12.04L103.38 12.04Q103.48 12.27 103.65 12.41L103.65 12.41L103.65 12.41Q103.83 12.56 104.08 12.62L104.08 12.62L104.08 12.62Q104.34 12.69 104.64 12.69L104.64 12.69L104.64 12.69Q104.96 12.69 105.27 12.63L105.27 12.63L105.27 12.63Q105.58 12.57 105.86 12.47L105.86 12.47L105.86 13.21L105.86 13.21Q105.43 13.49 104.96 13.63L104.96 13.63L104.96 13.63Q104.48 13.78 103.99 13.78L103.99 13.78L103.99 13.78Q103.53 13.78 103.16 13.65L103.16 13.65L103.16 13.65Q102.79 13.52 102.53 13.28L102.53 13.28L102.53 13.28Q102.27 13.03 102.12 12.66L102.12 12.66L102.12 12.66Q101.98 12.30 101.98 11.83L101.98 11.83ZM110.63 13.78L110.63 13.78L110.63 13.78Q109.82 13.78 109.19 13.49L109.19 13.49L109.19 13.49Q108.56 13.21 108.13 12.72L108.13 12.72L108.13 12.72Q107.69 12.24 107.46 11.59L107.46 11.59L107.46 11.59Q107.24 10.94 107.24 10.23L107.24 10.23L107.24 10.23Q107.24 9.41 107.53 8.69L107.53 8.69L107.53 8.69Q107.82 7.96 108.33 7.42L108.33 7.42L108.33 7.42Q108.85 6.88 109.56 6.57L109.56 6.57L109.56 6.57Q110.27 6.26 111.10 6.26L111.10 6.26L111.10 6.26Q111.92 6.26 112.55 6.55L112.55 6.55L112.55 6.55Q113.19 6.84 113.62 7.33L113.62 7.33L113.62 7.33Q114.06 7.83 114.28 8.47L114.28 8.47L114.28 8.47Q114.51 9.12 114.51 9.83L114.51 9.83L114.51 9.83Q114.51 10.66 114.21 11.38L114.21 11.38L114.21 11.38Q113.92 12.10 113.40 12.63L113.40 12.63L113.40 12.63Q112.88 13.17 112.17 13.47L112.17 13.47L112.17 13.47Q111.46 13.78 110.63 13.78ZM110.91 12.74L110.91 12.74L110.91 12.74Q111.41 12.74 111.82 12.54L111.82 12.54L111.82 12.54Q112.23 12.34 112.52 11.99L112.52 11.99L112.52 11.99Q112.81 11.64 112.97 11.17L112.97 11.17L112.97 11.17Q113.13 10.69 113.13 10.14L113.13 10.14L113.13 10.14Q113.13 9.60 112.97 9.10L112.97 9.10L112.97 9.10Q112.81 8.59 112.52 8.19L112.52 8.19L112.52 8.19Q112.22 7.79 111.79 7.54L111.79 7.54L111.79 7.54Q111.36 7.30 110.82 7.30L110.82 7.30L110.82 7.30Q110.32 7.30 109.91 7.50L109.91 7.50L109.91 7.50Q109.50 7.70 109.21 8.06L109.21 8.06L109.21 8.06Q108.92 8.41 108.76 8.89L108.76 8.89L108.76 8.89Q108.60 9.37 108.60 9.91L108.60 9.91L108.60 9.91Q108.60 10.45 108.76 10.96L108.76 10.96L108.76 10.96Q108.92 11.47 109.21 11.87L109.21 11.87L109.21 11.87Q109.51 12.26 109.94 12.50L109.94 12.50L109.94 12.50Q110.37 12.74 110.91 12.74ZM116.46 13.64L116.46 6.40L117.48 6.40L117.68 8.57L117.68 8.57Q117.77 8.40 117.87 8.22L117.87 8.22L117.87 8.22Q117.97 8.04 118.07 7.87L118.07 7.87L118.07 7.87Q118.17 7.70 118.26 7.55L118.26 7.55L118.26 7.55Q118.36 7.40 118.43 7.29L118.43 7.29L118.43 7.29Q118.58 7.08 118.77 6.89L118.77 6.89L118.77 6.89Q118.96 6.70 119.18 6.56L119.18 6.56L119.18 6.56Q119.40 6.42 119.64 6.34L119.64 6.34L119.64 6.34Q119.89 6.26 120.17 6.26L120.17 6.26L120.17 6.26Q120.37 6.26 120.54 6.31L120.54 6.31L120.54 6.31Q120.72 6.35 120.84 6.45L120.84 6.45L120.70 7.67L120.70 7.67Q120.58 7.64 120.46 7.63L120.46 7.63L120.46 7.63Q120.34 7.62 120.22 7.62L120.22 7.62L120.22 7.62Q119.74 7.62 119.38 7.77L119.38 7.77L119.38 7.77Q119.02 7.93 118.74 8.20L118.74 8.20L118.74 8.20Q118.45 8.47 118.22 8.83L118.22 8.83L118.22 8.83Q118.00 9.19 117.76 9.61L117.76 9.61L117.76 13.64L116.46 13.64ZM124.37 13.64L121.66 6.40L123.12 6.40L124.71 11.29L125.04 12.62L125.17 12.62L125.50 11.29L127.09 6.40L128.43 6.40L124.35 17.31L123.09 17.31L124.61 13.64L124.37 13.64Z"></path></g><!----><g data-v-423bf9ae="" id="309fb5ca-bef9-45a4-8658-d294a655333d" transform="matrix(2.812499664723913,0,0,2.812499664723913,226.0000053644174,-0.018124997930137)" stroke="none" fill="black"><path d="M6.651 27h6.024v5.01h6.651V27h6.024v5.01H32v-32h-6.651V5h-6.024V.01h-6.651V5H6.651V.01H0v32h6.651V27zM19.325 7h6.024v4.666h-6.024V7zm0 6.666h6.024v4.667h-6.024v-4.667zm0 6.667h6.024V25h-6.024v-4.667zM6.651 7h6.024v4.666H6.651V7zm0 6.666h6.024v4.667H6.651v-4.667zm0 6.667h6.024V25H6.651v-4.667z"></path></g><!----></svg>